<?xml version="1.0" encoding="UTF-8"?>
<svg id="Layer_1" xmlns="http://www.w3.org/2000/svg" viewBox="0 0 446.99 352">
  <defs>
    <style>
      .cls-1 {
        fill: #fff;
      }

      .cls-2 {
        fill: none;
      }
    </style>
  </defs>
  <path class="cls-1" d="M355.67,57.38c0,10.13-.17,19.69.22,29.23.05,1.12,3.2,3,4.94,3.04,13.01.25,26.04.22,39.05.07,3.86-.05,6.36.46,6.91,5.12.47,4,2.11,7.87,3.29,11.78,1.46,4.79,1.62,9.62-1.63,13.6-1.58,1.95-4.43,4.04-6.71,4.05-12.67.06-25.35-.35-38.01-.92-4.24-.19-5.64,1.04-5.5,5.34,1.17,35.15,2.15,70.31,3.23,105.46.51,16.68.95,33.35,1.75,50.01.54,11.33,1.78,22.63,2.38,33.97.08,1.53-1.31,3.64-2.65,4.68-6.6,5.09-13.2,10.23-20.19,14.77-7.67,4.98-15.69,9.41-23.67,13.9-3.07,1.72-6.47-.87-5.91-4.71,4.48-30.32,2.03-60.84,2.68-91.26.89-41.75.85-83.5,1.45-125.26.08-5.24-1.51-6.46-6.63-6.43-58.85.25-117.7.24-176.54.35-3.29,0-6.59.34-9.64.51,1.65,74.88,3.27,149.02,4.95,224.65-6.08-3.42-11.48-5.95-16.32-9.28-10.34-7.12-20.42-14.62-30.55-22.03-3.6-2.63-5.42-5.83-5.27-10.79,1.72-55.05,3.16-110.12,4.65-165.18.12-4.44-.08-8.9.19-13.32.21-3.49-1.04-4.68-4.57-4.63-13.02.19-26.04.15-39.06.18-8.51.03-13.76-5.05-13.31-13.63.29-5.65,1.36-11.26,2.36-16.85.64-3.59,3.49-3.8,6.61-3.78,14.45.1,28.89-.1,43.33.08,4.09.05,5.78-1.2,5.78-5.43,0-7.63.28-15.28.83-22.89.27-3.83-1.08-4.96-4.75-4.91-12.12.17-24.24.17-36.36.1-2.56-.02-6.65.11-7.35-1.23-1.88-3.54-2.5-7.83-3.17-11.9-.23-1.4.76-3.06,1.36-4.54,2.31-5.66,1.94-6.21-4.4-6.21s-12.84-.16-19.26.03c-7.33.22-6.96-6.31-9.42-10.31-2.3-3.72,1.13-5.19,3.07-7.35C14.37,3.69,26.89.68,42.85,2.01c41.69,3.48,83.54,5.89,125.36,6.89,39.72.96,79.51.06,119.25-.91,25.46-.62,50.88-2.88,76.33-4.28,10.67-.59,21.36-.71,32.03-1.33,9.54-.56,19.05-1.47,28.56-2.33,4.09-.37,7.2,1.02,9.84,4.15,3.66,4.35,7.64,8.43,11.3,12.79.86,1.03,1.77,2.94,1.37,3.97-2.71,7.05-9.47,11.34-17.28,11.38-3.57.02-7.13,0-10.7,0-6.61.04-6.73.45-5.09,6.68,1.04,3.93,1.97,8.1,1.81,12.1-.17,4.29-3.27,6.17-7.79,6.12-15.87-.15-31.74-.09-47.62-.08-1.72,0-3.45.15-4.54.2h0ZM318.32,90.06h.16l-.25-.05c.21-9.39.27-18.8.7-28.19.17-3.84-1.21-4.85-4.89-4.83-25.11.13-50.21.07-75.33.1-1.32,0-2.64.32-3.73.46,0,9.24.29,17.93-.12,26.59-.22,4.84,1.44,5.89,6.03,5.86,25.8-.16,51.61,0,77.41.05h0ZM165.94,56.98c-12.64,0-25.29.06-37.93-.04-3.06-.03-4.55.74-4.46,4.17.21,8.15.19,16.33.04,24.48-.07,3.67,1.68,4.44,4.94,4.43,24.93-.09,49.86-.1,74.79,0,3.74,0,5.02-1.41,4.96-5.05-.13-7.63-.17-15.27.19-22.88.19-4.07-1.2-5.24-5.13-5.17-12.47.18-24.93.07-37.4.08v-.02Z"/>
  <path class="cls-2" d="M165.94,56.98c12.47,0,24.93.12,37.4-.08,3.93-.06,5.32,1.11,5.13,5.17-.36,7.61-.32,15.26-.19,22.88.06,3.63-1.22,5.06-4.96,5.05-24.93-.1-49.86-.08-74.79,0-3.25,0-5-.76-4.94-4.43.15-8.16.17-16.33-.04-24.48-.09-3.44,1.4-4.19,4.46-4.17,12.64.1,25.28.04,37.93.04v.02Z"/>
  <path class="cls-2" d="M318.32,90.07c-25.8-.06-51.61-.22-77.41-.06-4.6.03-6.26-1.02-6.03-5.86.4-8.66.12-17.35.12-26.59,1.08-.15,2.4-.46,3.73-.46,25.11-.03,50.22.03,75.33-.1,3.68-.02,5.06.99,4.89,4.83-.44,9.38-.5,18.79-.7,28.19l.1.06h0Z"/>
  <path class="cls-1" d="M318.22,90.01l.25.05s-.16,0-.15,0-.1-.05-.1-.05h0Z"/>
</svg>